<svg width="234" height="107" viewBox="0 0 234 107" fill="none" xmlns="http://www.w3.org/2000/svg">
<g clip-path="url(#clip0_34_18981)">
<path d="M168.79 106.995L116.558 79.9626L64.7578 107L116.774 0L168.79 106.995ZM117.187 24.5317L87.5895 83.3134L116.627 68.1856C126.463 72.691 135.582 78.6262 145.526 82.8909L117.187 24.5317Z" fill="#1A1A1A"/>
<path d="M233.214 6.55859L217.182 28.3094L215.816 29.2331L145.759 46.5374L139.273 33.1882L233.214 6.55859Z" fill="#1A1A1A"/>
<path d="M94.3927 32.9524L87.7058 46.7094L16.8523 29.1201L16.0122 28.6484L0 6.55859L94.3927 32.9524Z" fill="#1A1A1A"/>
<path d="M86.3254 49.5452L80.6604 61.1944L34.4418 50.4639C30.0445 45.5114 25.7552 40.3034 21.751 35.0168C21.5053 34.6925 21.1123 34.609 21.2646 34.0391L86.3254 49.5452Z" fill="#1A1A1A"/>
<path d="M211.622 34.0391L199.334 50.0414C186.049 53.5101 172.439 56.7136 158.962 59.7204C156.933 60.1725 154.889 60.6589 152.84 61.1011L147.254 49.6041L211.622 34.0391Z" fill="#1A1A1A"/>
<path d="M79.247 64.1022L73.8031 75.2995L54.9806 69.8311L41.543 55.627L79.247 64.1022Z" fill="#1A1A1A"/>
<path d="M191.339 55.627L178 70.0128L159.767 75.3486L154.234 63.9647L191.339 55.627Z" fill="#1A1A1A"/>
</g>
<defs>
<clipPath id="clip0_34_18981">
<rect width="233.216" height="107" fill="white"/>
</clipPath>
</defs>
</svg>
